<?xml version="1.0" encoding="UTF-8"?>
<!DOCTYPE svg PUBLIC "-//W3C//DTD SVG 1.1//EN" "http://www.w3.org/Graphics/SVG/1.1/DTD/svg11.dtd">
<!-- Creator: CorelDRAW 2018 (64 Bit) -->
<svg xmlns="http://www.w3.org/2000/svg" xml:space="preserve" width="238.831mm" height="77.611mm" version="1.1" style="shape-rendering:geometricPrecision; text-rendering:geometricPrecision; image-rendering:optimizeQuality; fill-rule:evenodd; clip-rule:evenodd"
viewBox="0 0 23883.06 7761.1"
 xmlns:xlink="http://www.w3.org/1999/xlink">
 <defs>
  <style type="text/css">
   <![CDATA[
    .str0 {stroke:#FAD031;stroke-width:10;stroke-miterlimit:10}
    .fil0 {fill:#008352}
    .fil3 {fill:#383637}
    .fil6 {fill:#393536}
    .fil5 {fill:#393738}
    .fil2 {fill:#3B3738}
    .fil4 {fill:#3C393A}
    .fil7 {fill:#403E3F}
    .fil8 {fill:#424041}
    .fil9 {fill:#FAD031}
    .fil1 {fill:#FCFCFC}
   ]]>
  </style>
 </defs>
 <g id="Capa_x0020_1">
  <metadata id="CorelCorpID_0Corel-Layer"/>
  <g id="_2052787893088">
   <path class="fil0" d="M2843.04 1859.83l314.35 -1407.63c294.07,1457.87 0.33,1.63 294.07,1457.87l620.75 -857.55 -184.35 1079.65c935.52,-564.23 0,0 935.52,-564.23 -561.63,935.76 0,0 -561.63,935.76l1053.45 -173.65c-801.52,622.76 -19.49,4.03 -821.01,626.79 1467.07,293.82 1.25,-1.02 1468.32,292.8 -1446.75,279.12 6.25,4.51 -1440.5,283.63l816.2 588.88 -1080.23 -177.53 573.18 931.09c-943.12,-551.39 0,0 -943.12,-551.39l184.52 1069.8c-608.87,-826.75 0,0 -608.87,-826.75l-287.48 1419.26 -304.87 -1422.11c-600.65,823.19 -7.82,7.32 -608.47,830.51l183.42 -1075.69c-936.76,561.44 0,0 -936.76,561.44l574.61 -925.32 -1089.85 174.77 821.67 -599.34c-1448.72,-322.99 10.09,1.79 -1448.72,-322.99l1466.26 -268.73c-813.04,-614.26 -2.18,-1.65 -815.22,-615.91l1054.9 179.27c-565.77,-934.88 0,0 -566.44,-935.99 936.95,561.22 2.09,1.26 936.95,561.22l-177.15 -1077.15 576.5 809.22zm-2535.47 265.78l0 2222.22c0,578.15 125.04,942.11 397.54,1260.3 97.88,114.28 332.13,266.17 478.78,332.5 176.38,79.77 443.59,135.59 710.98,135.59l2539.68 0c959.55,0 1587.3,-629.77 1587.3,-1587.3l0 -2469.13c0,-918.34 -587.96,-1622.57 -1340.39,-1622.57l-3033.51 0c-452.62,0 -774.06,272.01 -996.54,520.21 -251.39,280.44 -343.84,688.76 -343.84,1208.18z"/>
   <path class="fil0" d="M19496.27 3254.35c0,-980.35 270.35,-1834.22 1340.39,-1834.22 855.37,0 1305.11,694.25 1305.11,1552.04 0,517.27 -2.88,1102.92 -343.44,1490.76 -97.62,111.16 -246.78,252.77 -386.59,318.87 -512.14,242.21 -1227.78,155.85 -1599.04,-362.39 -195.42,-272.79 -316.43,-693.32 -316.43,-1165.06zm-1446.21 -246.92c0,929.35 148.91,1690.62 731.77,2266.47 640.37,632.69 1203.3,802.32 2160.65,802.32 565.41,0 1145.57,-177.08 1562.88,-482.97 108.06,-79.21 304.86,-236.26 377.94,-327.53 108.86,-135.95 187.48,-219.52 288.75,-381.45 560.4,-895.98 590.02,-2475.96 70.54,-3330.38l-289.22 -416.26c-342.47,-442.95 -1117.73,-881.51 -1905.07,-881.51l-458.56 0c-1091.59,0 -1959.06,693.92 -2328.73,1621.87 -111.31,279.39 -210.95,738.06 -210.95,1129.44z"/>
   <path class="fil0" d="M6833.14 3924.55c0,2534.33 3062.11,2525.32 4066.01,1561.6 406.86,-390.6 590.07,-889.69 590.07,-1667.43l0 -3421.5 -1410.93 0 0 3456.77c0,673.81 -255.46,1058.2 -917.11,1058.2 -831.71,0 -952.38,-531.41 -952.38,-1305.1l0 -3209.87 -1375.66 0 0 3527.33z"/>
   <path class="fil0" d="M12300.51 3183.8c0,840.55 204.52,1416.31 684.92,2031.13 160.38,205.26 523.57,486.31 775.71,599.94 1174.11,529.08 2805.87,298.56 3430.99,-949.32 101.32,-202.27 236.56,-609.35 258.29,-870.47l-1305.12 0c-48.44,100.97 -59.02,218.31 -116.41,342.16 -332.81,718.14 -1534.77,727.76 -1958.94,75.35 -443.09,-681.52 -473.37,-2344.41 417.49,-2851.38 444.4,-252.9 1238.32,-177.82 1538.41,366.4 209.79,380.46 -250.19,303.81 1424.57,303.81 0,-1143.69 -1046.05,-1975.3 -2257.5,-1975.3 -1822.29,0 -2892.41,1135.22 -2892.41,2927.68z"/>
   <path class="fil1" d="M3463.69 4567.37c608.87,826.75 0,0 608.87,826.75l-177.69 -1065.81c943.12,551.39 -6.83,-3.99 936.29,547.4l-573.18 -931.09 1080.23 177.53 -822.45 -593.39 -879.91 178.99 -172.16 859.62z"/>
   <path class="fil1" d="M2871.34 4564.52l-185.46 -840.39 -869.92 -193.24 -821.67 599.34 1089.85 -174.77 -574.61 925.32c936.76,-561.44 0,0 936.76,-561.44l-183.42 1075.69c425.44,-583.06 303.44,-412.46 608.47,-830.51z"/>
   <path class="fil1" d="M3451.46 1910.07l175.86 871.89 866.87 174.88c819.76,-625.77 1.25,-1.02 821.01,-626.79l-1053.45 173.65c561.63,-935.76 0,0 561.63,-935.76 -935.52,564.23 0,0 -935.52,564.23l184.35 -1079.65 -620.75 857.55z"/>
   <path class="fil1" d="M1831.32 2937.52l803.82 -146.75 207.2 -931.77 -575.8 -808.39 177.15 1077.15c-936.95,-561.22 0,0 -936.95,-561.22 566.44,935.99 0,0 566.44,935.99l-1054.9 -179.27c813.04,614.26 650.26,477.41 813.04,614.26z"/>
   <path class="fil2" d="M18755.53 7310.78c-251.52,-67.17 -195.03,-368.12 -141.09,-599.65l139.72 -39.58c201.94,143.14 199.33,506.68 1.37,639.23zm-423.28 -352.74c0,748.04 811.29,662.9 811.29,35.27 0,-666.1 -811.29,-656.41 -811.29,-35.27z"/>
   <path class="fil2" d="M342.84 7169.69c0,412.29 740.74,439.06 740.74,35.27l0 -705.46 -176.37 0c0,576.16 79.24,811.28 -176.36,811.28 -216.78,0 -141.1,-390.96 -141.1,-811.28l-246.91 0 0 670.19z"/>
   <path class="fil3" d="M9513.91 6993.31c0,612.48 768,661.29 811.29,141.1 -213.48,0 -166.66,4.51 -222.78,59.42 -49.06,48 -29.17,116.95 -165.23,116.95 -230.97,0 -267.03,-634.92 35.28,-634.92 120.68,0 116.27,105.11 141.09,211.64l210.46 -40.62c-41.84,-528.56 -810.11,-452.26 -810.11,146.43z"/>
   <path class="fil4" d="M6656.77 7204.96c0,-182.58 -15.76,-228.38 105.82,-317.46 156.83,105.01 156.83,353.53 0,458.55 -54.9,-36.77 -105.82,-46.75 -105.82,-141.09zm211.64 -388.01c-519.95,-348.17 -536.12,670.19 -211.64,670.19 197.72,0 27.26,-23.94 161.73,-41.08 126.4,-16.13 -28.27,41.08 261.55,41.08l0 -987.64 -211.64 0 0 317.45z"/>
   <path class="fil4" d="M16392.22 7204.96c0,-242.07 -25.82,-272.89 141.09,-317.46 21.17,44.12 116.38,484.05 -59.04,439.01 -53.92,-13.84 -82.05,-58.37 -82.05,-121.55zm211.64 -388.01c-117.58,-62.21 -287.55,-138.65 -389.08,34.21 -81.52,138.75 -82.38,356.64 -11.68,507.65 134.96,288.25 400.52,22.68 400.76,22.51l0 105.82 176.36 0 0 -987.64 -176.36 0 0 317.45z"/>
   <path class="fil4" d="M8632.08 6887.5c40.69,84.81 93.95,529.6 -83.8,437.06 -56.7,-29.53 -82.1,-70.81 -61.7,-260.22 15.4,-142.99 27.43,-145.31 145.5,-176.84zm70.54 -70.55c-575.26,-304.39 -596.66,670.19 -176.36,670.19 174.99,0 -27.74,-73.37 156.3,-41.66 53.14,9.15 64.38,41.66 196.43,41.66l0 -987.64 -176.37 0 0 317.45z"/>
   <path class="fil4" d="M15122.38 7346.05c5.06,-227.53 20.95,-137.06 176.36,-211.64 0,196.52 21.88,206.85 -176.36,211.64zm-211.65 -388.01c186.5,0 52.59,0.25 105.83,35.27 81.45,-21.74 292.14,-268.97 317.46,35.29 -555.27,0 -587.16,458.54 -176.37,458.54 84.8,0 103.69,-57.15 176.37,-105.82l0 105.82 211.64 0c0,-479.17 58.89,-740.73 -352.74,-740.73 -159.11,0 -248.11,84.02 -282.19,211.63z"/>
   <path class="fil4" d="M7573.88 7346.05c5.99,-268.8 160.51,-199.98 176.94,-183.54 23.53,23.52 34.65,73.59 -11.73,128.99 -69.93,83.54 -18.69,51.29 -165.21,54.55zm-211.64 -388.01c186.49,0 52.59,0.25 105.82,35.27 81.45,-21.74 292.14,-268.97 317.46,35.29 -555.27,0 -587.16,458.54 -176.37,458.54 84.8,0 103.69,-57.15 176.37,-105.82 30.81,115.42 3.83,105.82 211.64,105.82 0,-490.71 65.67,-740.73 -352.74,-740.73 -159.11,0 -248.11,84.02 -282.18,211.63z"/>
   <path class="fil4" d="M10783.75 7346.05c4.08,-183.17 25.54,-176.49 176.37,-211.64 0,196.52 21.88,206.85 -176.37,211.64zm-211.64 -388.01c186.49,0 52.59,0.25 105.82,35.27 81.46,-21.74 292.14,-268.97 317.46,35.29 -690.74,0 -516.39,698.51 0,352.72l0 105.82 211.64 0c0,-545.61 5.72,-740.73 -352.73,-740.73 -159.11,0 -248.11,84.02 -282.19,211.63z"/>
   <path class="fil4" d="M1401.04 6852.22c0,691.41 -53.7,634.92 211.64,634.92 0,-383.44 -53.92,-564.36 105.82,-564.36 159.75,0 105.82,180.92 105.82,564.36 245.15,0 211.64,26.61 211.64,-352.73 0,-137.77 -27.04,-262.07 -70.55,-352.73 -141.52,-33.88 -259.73,-88.94 -317.46,70.54l-49.43 -56.38c-80.09,-61.71 49.74,-49.43 -91.66,-49.43 -81.27,0 -105.82,24.55 -105.82,105.81z"/>
   <path class="fil2" d="M12371.05 7346.05c-56.7,-100.93 -35.27,-178.26 -35.27,-352.74 0,-134.86 -10.83,-12.83 35.27,-105.81 206.22,17.15 176.37,82.82 176.37,317.46 0,113.1 -67.01,131.78 -176.37,141.09zm-282.18 -246.92c0,489.03 670.19,572.63 670.19,-35.26 0,-422.06 -670.19,-436.44 -670.19,35.26z"/>
   <path class="fil2" d="M21471.58 7487.14l176.37 0c0,-452.62 -50,-498.54 141.09,-599.64 116.13,173.42 70.55,190.05 70.55,599.64l211.64 0c0,-467.06 71.85,-740.73 -246.92,-740.73 -84.8,0 -103.69,57.15 -176.36,105.81l0 -105.81 -176.37 0 0 740.73z"/>
   <path class="fil2" d="M23305.79 6887.5c106.65,0 97.54,41.51 105.82,141.1l-211.64 0c8.29,-99.59 -0.82,-141.1 105.82,-141.1zm-352.73 211.63c0,428.65 574.1,553.58 670.19,141.1 -282.58,0 -123.57,40.13 -268.39,87.57 -124.6,40.82 -165.5,-52.26 -190.16,-158.11 120.62,-67.78 318.43,-35.28 458.55,-35.28 0,-598.13 -670.19,-429.04 -670.19,-35.28z"/>
   <path class="fil5" d="M3905.45 6887.5c106.64,0 97.53,41.51 105.82,141.1l-211.64 0c8.29,-99.59 -0.82,-141.1 105.82,-141.1zm0 599.64c193.65,0 273.85,-59.73 317.46,-246.91 -324.69,0 -105.57,85.26 -352.73,105.82 -77.55,-73.55 -69.89,12.16 -84.98,-125.17 -13.77,-125.38 56.71,-86.47 437.71,-86.47 0,-231.28 -94.59,-388 -317.46,-388 -453.07,0 -458.97,740.73 0,740.73z"/>
   <path class="fil3" d="M17415.14 6887.5c106.65,0 97.54,41.51 105.82,141.1l-246.91 0c41.16,-77.8 30.77,-141.1 141.09,-141.1zm-352.73 211.63c0,424.47 449.19,558.78 670.19,141.1 -340.78,0 -140.78,105.82 -317.46,105.82 -115.73,0 -132.34,-71.16 -141.09,-176.36 120.62,-67.78 318.43,-35.28 458.55,-35.28 -12.74,-572.06 -670.19,-461.4 -670.19,-35.28z"/>
   <path class="fil3" d="M20871.93 6887.5c106.64,0 97.53,41.51 105.82,141.1l-246.91 0c21.33,-79.92 33.92,-141.1 141.09,-141.1zm-352.73 176.37c0,493.98 458.41,576.59 670.19,176.36 -340.78,0 -140.78,105.82 -317.46,105.82 -125.62,0 -138.24,-83.64 -141.09,-211.64l458.55 0c-12.48,-560.46 -670.19,-457.2 -670.19,-70.54z"/>
   <path class="fil2" d="M5104.74 6958.04c0,95.27 16.85,97.26 35.28,176.37 271.82,130.42 324.87,1.97 388,176.37 -189.98,106.74 -232.12,-35.28 -458.55,-35.28 209.62,396.16 634.92,162.17 634.92,0 0,-347.38 -290.44,-171.42 -423.28,-352.72 188.55,-105.94 157.86,35.26 282.19,35.26 177.92,0 110.39,-211.63 -211.64,-211.63 -142.49,0 -246.92,76.79 -246.92,211.63z"/>
   <path class="fil6" d="M14028.9 7063.87c0,571.19 602.75,527.7 634.92,141.09 -336.72,0 -81.45,105.82 -282.19,105.82 -165.44,0 -208.47,-258.99 -35.27,-423.28 263.51,70.36 -18.53,141.1 317.46,141.1 -9.57,-429.75 -634.92,-340.33 -634.92,35.27z"/>
   <path class="fil4" d="M22423.96 6746.41l-141.09 0 0 176.37 105.82 0c0,601.79 25.8,564.36 388,564.36 -3.88,-174.11 -2.25,-172.48 -176.36,-176.36l0 -388 141.09 0 0 -176.37 -141.09 0 0 -211.64 -176.37 0 0 211.64z"/>
   <path class="fil2" d="M11559.77 6640.59c0,106.63 -41.52,97.52 -141.1,105.82l0 176.37 105.82 0c0,228.71 -7.96,343.52 35.28,529.1l317.46 35.26 0 -176.36 -141.1 0 0 -388 141.1 0 0 -176.37 -141.1 0 0 -211.64 -176.36 0 0 105.82z"/>
   <path class="fil2" d="M2988.34 7487.14l176.37 0c20.72,-249.04 190.91,-491.68 211.64,-740.73l-141.09 0c-14.88,178.69 -90.95,244.58 -105.82,423.28 -231.08,-169.32 46.17,-423.28 -352.74,-423.28 4.92,220.64 160.48,521.14 211.64,740.73z"/>
   <path class="fil7" d="M13041.25 7487.14l105.82 0c81.27,0 105.82,-24.54 105.82,-105.82l0 -881.82 -211.64 0 0 987.64z"/>
   <path class="fil4" d="M4505.1 7487.14c276.51,0 211.64,-49.78 211.64,-458.54 112.81,-75.54 24.7,-57.93 176.36,-70.56l0 -211.63c-181.66,15.12 -60.64,50.22 -172.81,44.55 -49.6,-2.5 -79.54,-44.55 -215.19,-44.55l0 740.73z"/>
   <path class="fil2" d="M19425.72 7487.14l176.37 0c0,-338.34 -50.49,-510.22 176.37,-529.1l0 -211.63c-137.88,11.46 -107.14,-21.35 -141.1,105.81 -32.62,-43.13 -22.87,39.66 -35.27,-105.81l-176.37 0 0 740.73z"/>
   <path class="fil7" d="M2318.15 6852.22c0,691.41 -53.7,634.92 211.64,634.92l0 -740.73c-142.92,0 -211.64,-19.58 -211.64,105.81z"/>
   <path class="fil7" d="M5951.3 6852.22c0,691.41 -53.7,634.92 211.64,634.92l0 -740.73c-142.91,0 -211.64,-19.58 -211.64,105.81z"/>
   <path class="fil8" d="M20025.37 6852.22c0,691.41 -53.7,634.92 211.64,634.92l0 -740.73c-142.91,0 -211.64,-19.58 -211.64,105.81z"/>
   <path class="fil7" d="M13535.07 6852.22c0,691.41 -53.7,634.92 211.64,634.92l0 -740.73c-142.91,0 -211.64,-19.58 -211.64,105.81z"/>
   <path class="fil7" d="M20025.37 6605.32c0,142.02 63.61,73.84 211.64,70.54l0 -176.36 -211.64 0 0 105.82z"/>
   <path class="fil4" d="M13535.07 6605.32c0,142.02 63.61,73.84 211.64,70.54l0 -176.36 -211.64 0 0 105.82z"/>
   <path class="fil4" d="M2318.15 6605.32c0,142.02 63.6,73.84 211.64,70.54l0 -176.36 -211.64 0 0 105.82z"/>
   <path class="fil7" d="M12335.78 6640.59c119.66,-27.88 181.52,-74.15 317.46,-105.82l-39.59 -139.72c-346.72,188.82 -263.71,116.12 -277.87,245.54z"/>
   <polygon class="fil2" points="5951.3,6675.86 6162.94,6675.86 6162.94,6499.5 5951.3,6499.5 "/>
   <path class="fil9 str0" d="M3628.46 2784.93c-156.64,-776.23 -314.43,-1553.96 -471.07,-2330.18l-522.25 2337.49 -2267.9 415.66 2319.77 518.73 489.2 2260 459.64 -2277.83 2323.46 -457.28 -2330.85 -466.59z"/>
  </g>
 </g>
</svg>
